<svg xmlns="http://www.w3.org/2000/svg" width="555.557" height="446.908" viewBox="0 0 555.557 446.908"><script xmlns=""/><defs><style>.a{fill:#f2f2f2;}.b{fill:#2f2e41;}.c{opacity:0.1;}.d{fill:#ffc1c7;}.e{fill:#f03667;}.f{fill:#6c63ff;}.g{fill:none;stroke:#3f3d56;stroke-miterlimit:10;}</style></defs><path class="a" d="M891.488,356.668a14,14,0,0,0-17.683,7.157c-.14.3-.28.6-.407.914a15.1,15.1,0,0,0-.587,2.021,14,14,0,0,1,19.01-12.82,13.783,13.783,0,0,1,3.108,1.681,13.993,13.993,0,0,0-23.74,10.392,20.057,20.057,0,0,0-26.661,3.042,18.013,18.013,0,0,0-7.844,16.656c-4.876,3.088-11.079,9.659-11.079,9.659s-22.766,18.43-33.618,29.983-.027,14.995-.027,14.995,10.893,1.027,19.818.874c-.827,3.042-.6,6.657,1.421,10.826,0,0-1.421,13.027-5.49,14.328-1.527.487-.36.794,1.681.987l-.707,1.354a10.23,10.23,0,0,0-2.548-.093s-4.216,4.7-9.118,10.206c-3.068-.454-5.53-.64-5.47-.073.073.787,2.008,1.481,3.8,1.954-5.983,6.73-12.387,13.988-13.207,15.155-1.574,2.255-39.448,37.754-50.1,54.383s-13.094,19.277-13.094,19.277,2.074,2.028,5.283,5.063c-3.462,9.245-11.706,30.116-18.737,38.928.247-.8-3.522-.48-7.637,3.642,0,0-.387.213-1.067.56-3.582,1.854-15.322,7.564-20.758,6.083-6.47-1.761-9.745,6.657-6.69,8.151,3.3,1.628,8.385,6.07,16.816,6.443a42.812,42.812,0,0,0,10.632-1.227c4.636-1,8.578-2.134,10.386-1.441,3.115,1.187,15.615.26,13.454-3.422s.46-10.539.46-10.539-.867.087-2.195.16c3.108-8.418,15.368-23.666,22.345-31.957,1.814,1.541,3.609,3.035,5.336,4.416,12.033,9.605,18.263,11.987,18.263,11.987s-.253-8.665,9.739-19.838c3.082-3.448,7.684-9.445,12.574-16.082,3.262,16.682,8.264,38.621,12.32,40.609a12.019,12.019,0,0,0,4.269.94c2.588,6.6,6.8,17.623,9.925,27.315h17.236c-3.789-9.739-7.391-21.045-7.564-29.349,3.309-.654,5.583-1.2,5.583-1.2,4.529-11.84-3.429-47.026-6.944-58.372s2.081-18.483,2.081-18.483c8.631-16.309,8.211-24.86,7-28.736a59.745,59.745,0,0,0,1.9-5.716c.587-2.134,1.181-4.049,1.768-5.763,11.806.18,23.933.24,25.521-.213a6.969,6.969,0,0,0,3.2-2.948,19.763,19.763,0,0,0,3.3-10.366c.293-7.591.674-23.84-.66-37.374,4.056-10.5,6.2-22.706.02-29.923,0,0-.84-.474-2.114-1.094a37.076,37.076,0,0,1,.4-8.078,19.757,19.757,0,0,0,4.176-1.548c.287-.147.567-.293.847-.454.56-.314,1.1-.66,1.628-1.027a19.908,19.908,0,0,0,7.191-9.225c.127-.333.247-.667.354-1,.04-.113.067-.227.1-.34.073-.227.14-.447.2-.667.033-.14.067-.273.093-.407.053-.2.107-.407.147-.607.033-.147.053-.287.08-.434.04-.193.073-.387.107-.587.027-.147.04-.293.06-.44.027-.187.053-.38.073-.574.02-.153.027-.3.04-.447.02-.193.033-.38.04-.567.013-.153.013-.3.02-.454.007-.187.013-.374.013-.56,0-.153-.007-.3-.007-.454V381.9c.06.033.113.067.173.1a14.033,14.033,0,0,0,9.165,9.378,14.065,14.065,0,0,1-7.164-8.465,13.84,13.84,0,0,0,2.868.7,14.024,14.024,0,0,0,13.687,4.843,14.058,14.058,0,0,1-11.246-4.709,14.258,14.258,0,0,0,2.615-.354,13.784,13.784,0,0,0,2.548-.854,14.157,14.157,0,0,0,4.4-3.088,13.878,13.878,0,0,0,1.7-2.161,14.31,14.31,0,0,0,1.274-2.535c.12-.313.214-.634.307-.954a13.982,13.982,0,0,0-8.385-17.136ZM704.88,614.254a1.514,1.514,0,0,1,.32-.38C705.093,614,704.986,614.134,704.88,614.254ZM838.259,418.982c-8.9,2.488-24.974,6.91-30.53,8.018,4.6-9.892,21.338-23.88,21.338-23.88s6.79-3.555,10.7-8.952a17.888,17.888,0,0,0,5.436,5.163c.02,2.068-.007,4.2-.127,6.217-.874-.153-1.394-.12-1.347.327.147,1.487.634,9.532-2.808,11.073a10.661,10.661,0,0,0-2.661,2.034Zm6.3,59.352c-.874.013-2.081.06-3.515.14,2.274-3.328,6.2-8.958,9.525-13.2.387,5.5.5,9.125.5,9.125s.674,3.829-6.51,3.935Z" transform="translate(-344.925 -193.573)"/><circle class="b" cx="20.011" cy="20.011" r="20.011" transform="translate(373.869 124.234)"/><path class="c" d="M780.139,308.717a20.011,20.011,0,0,1-28.268,28.268,20.011,20.011,0,1,0,28.268-28.268Z" transform="translate(-372.791 -179.273)"/><circle class="b" cx="14.008" cy="14.008" r="14.008" transform="translate(400.55 108.892)"/><path class="c" d="M798.068,310.413a14,14,0,0,1-13.957-13.007c-.023.332-.051.663-.051,1a14.008,14.008,0,0,0,28.015,0c0-.338-.027-.669-.051-1a14,14,0,0,1-13.957,13.007Z" transform="translate(-383.509 -175.507)"/><path class="b" d="M782.061,287.579a13.959,13.959,0,0,1,17.514-13.547,14,14,0,1,0-9.014,26.428A14.009,14.009,0,0,1,782.061,287.579Z" transform="translate(-382.177 -167.347)"/><path class="b" d="M800.632,304.242a13.959,13.959,0,0,1,12.579-18.222,14,14,0,1,0-.571,27.917,14.009,14.009,0,0,1-12.007-9.694Z" transform="translate(-388.105 -171.694)"/><path class="b" d="M805.608,304a13.959,13.959,0,0,1,1.959-22.055,14,14,0,1,0,13.267,24.569A14.009,14.009,0,0,1,805.608,304Z" transform="translate(-388.572 -170.358)"/><path class="d" d="M784.242,361.086s-21.345,14.675-20.011,8c.747-3.749-2.088-11.72-4.716-17.976-2.041-4.869-3.955-8.7-3.955-8.7l23.346-6a37.055,37.055,0,0,0,.087,10.706,34.275,34.275,0,0,0,5.25,13.974Z" transform="translate(-374.02 -188.493)"/><path class="d" d="M566.334,351.168,565,362.508l18.677-2,3.335-12.007Z" transform="translate(-188.129 -115.874)"/><path class="d" d="M711.023,408.788l-4,4.669s-11.34.667-5.336-14.008,20.678-40.022,20.678-40.022,9.338-22.679,12.673-14.008-6.67,20.011-6.67,20.011-12.674,22.679-11.339,32.684Z" transform="translate(-355.497 -190.836)"/><path class="c" d="M711.023,408.788l-4,4.669s-11.34.667-5.336-14.008,20.678-40.022,20.678-40.022,9.338-22.679,12.673-14.008-6.67,20.011-6.67,20.011-12.674,22.679-11.339,32.684Z" transform="translate(-355.497 -190.836)"/><path class="d" d="M812.56,671.411s30.016,32.017,33.351,41.356-5.336,24.013-8.671,24.68-4,4.669,0,5.336,17.343-5.336,21.345-12.007,6.67-11.339,8.671-12.674,3.335-7.337,0-10.672-30.683-28.682-34.018-44.024Z" transform="translate(-392.999 -297.375)"/><path class="b" d="M872.22,725.352s-1.334,13.341-13.341,7.337c0,0-5.336-6-5.336,1.334s-2.668,20.011-11.339,24.68,6,6.67,8,6,15.342-5.336,17.343-9.338,9.338-13.341,12.007-16.676S878.89,724.018,872.22,725.352Z" transform="translate(-401.965 -317.965)"/><path class="b" d="M783.24,512.406s9.338,4,6,31.35c0,0-2.668,8.671,4.669,18.01s27.348,39.355,27.348,52.028c0,0-19.344,13.341-26.681,12.674s-36.019-50.027-36.019-50.027Z" transform="translate(-375.019 -247.096)"/><path class="c" d="M783.24,512.406s9.338,4,6,31.35c0,0-2.668,8.671,4.669,18.01s27.348,39.355,27.348,52.028c0,0-19.344,13.341-26.681,12.674s-36.019-50.027-36.019-50.027Z" transform="translate(-375.019 -247.096)"/><path class="d" d="M673.015,665.406s1.334,48.026-6.67,53.362c0,0-10.672,15.342-17.343,15.342s-6,5.336-2.668,6,4,2.668,17.343-2.668,20.011-6.67,22.012-6.67,4-2.668,0-10.673,11.339-48.693,11.339-48.693Z" transform="translate(-336.833 -298.041)"/><path class="b" d="M685.146,739.238s-6.67,3.335-11.339,4-7.3-4.056-6.316-5.7-3.023-.307-5.691,5.7c0,0-11.339,13.341-18.01,14.008s-6.722,9.7-3.335,10.005c3.669.334,10.005,2.668,18.01,0s15.342-10.005,18.677-10.005,14.675-5.336,11.339-8S685.146,739.238,685.146,739.238Z" transform="translate(-334.956 -321.845)"/><path class="d" d="M751.249,388.013s-28.015,20.94-32.017,22.942S710.56,428.3,710.56,428.3s24.013-6.67,28.015-11.339S751.249,388.013,751.249,388.013Z" transform="translate(-359.036 -205.676)"/><path class="c" d="M751.249,388.013s-28.015,20.94-32.017,22.942S710.56,428.3,710.56,428.3s24.013-6.67,28.015-11.339S751.249,388.013,751.249,388.013Z" transform="translate(-359.036 -205.676)"/><circle class="d" cx="18.01" cy="18.01" r="18.01" transform="translate(371.868 129.57)"/><path class="b" d="M722.918,478.479s-12.006,31.35-12.674,34.019S686.9,561.858,682.9,581.2s-5.336,22.679-5.336,22.679,20.011,8.671,34.685,13.341,21.345,4.669,21.345,4.669-3.335-8,2-22.012,16.009-58.7,16.009-58.7,8.534-26.348,6.67-45.358a71,71,0,0,1-.16-14.75,5.769,5.769,0,0,0-6.11-6.44C742.1,475.31,726.1,476.663,722.918,478.479Z" transform="translate(-348.048 -234.514)"/><path class="e" d="M778.62,367.189s-8.671-1.334-12.674.667-10.672,1.334-10.005,2.668,4,8.671,1.334,11.339-5.336,14.675-10.672,18.01-13.341,14.675-2.668,24.68c0,0,3.335,12.674,0,15.342s10.672-2.668,10.672-2.668a29.055,29.055,0,0,1,8.671,3.335c4.669,2.668,15.342,2,15.342,2s4.669-20.678,7.337-25.347S794.628,375.86,778.62,367.189Z" transform="translate(-368.397 -198.598)"/><path class="d" d="M771.239,383.362s-15.342,2.668-5.336,18.01,18.677,36.02,18.677,36.02,2,3.335-4.669,6-32.684,15.342-32.684,15.342-17.343,2.668-16.676,4,7.337,0,7.337,0-4.669,12.674,3.335,12.674,12.006-8,12.006-8,43.357-15.342,46.025-17.343a6.965,6.965,0,0,0,1.935-3.895,19.772,19.772,0,0,0-.622-10.864C796.065,422.036,781.307,381.125,771.239,383.362Z" transform="translate(-365.686 -204.099)"/><path class="b" d="M774.109,312.543A14.674,14.674,0,1,0,754.7,331.955a14.674,14.674,0,1,0,19.412-19.412Z" transform="translate(-370.856 -177.671)"/><ellipse class="d" cx="1.668" cy="4.336" rx="1.668" ry="4.336" transform="translate(383.208 149.581)"/><circle class="f" cx="14.675" cy="14.675" r="14.675" transform="translate(209.447 19.177)"/><path class="f" d="M0,0H21.345V21.345H0Z" transform="translate(27.348 204.611)"/><rect class="a" width="152.082" height="88.715" rx="16.004" transform="translate(120.732 103.222)"/><circle class="e" cx="60.033" cy="60.033" r="60.033" transform="translate(17.676 43.523)"/><circle class="g" cx="60.033" cy="60.033" r="60.033" transform="translate(27.682 37.52)"/><rect class="g" width="152.082" height="88.715" rx="14.693" transform="translate(105.724 88.214)"/><circle class="g" cx="14.675" cy="14.675" r="14.675" transform="translate(215.45 13.174)"/><rect class="g" width="21.345" height="21.345" transform="translate(30.683 200.608)"/><rect class="f" width="21.345" height="21.345" transform="translate(0 4.502)"/><rect class="g" width="21.345" height="21.345" transform="translate(3.335 0.5)"/><line class="g" x2="275.483" transform="translate(267.145 446.408)"/></svg>